<svg xmlns="http://www.w3.org/2000/svg" width="2000" height="2000"><defs><clipPath id="a"><path fill="none" d="M1004.25 577.847a37.346 37.346 0 0 0-54.173-33.474L409.668 814.579a37.246 37.246 0 0 0-20.683 33.407v429.142a37.346 37.346 0 0 0 54.078 33.52l540.505-270.254a37.372 37.372 0 0 0 20.682-33.406Z"></path></clipPath><clipPath id="b"><path fill="none" d="M1476.493 963.577c-21.719 65.8-380.539 248.855-434.214 143.142-30.3-59.715 2.557-159.093 45.663-247.312 48.075-98.39 108.887-182.929 108.887-182.929-6.745-13.613-3.382-50.724 4.194-67.418 11.479-25.357 29.151-10.316 43.8-19.149 18.837-11.329-30.942-77.365 7.287-77.537 22.627-.162 44.314 111.754 32.938 148.11-4.055 13.032-17.32 17.771-17.32 17.771s-99.4 217.134-70.878 251.389c35.312 42.467 70.571-70.991 201.107-63.859 80.236 4.396 90.492 61.663 78.536 97.792Z"></path></clipPath><clipPath id="c"><path fill="none" d="M1212.166 1422.346c57.451-189.577 114.77-83.59 96.662-298.672-5.75-67.286 28.357-270.082 137.858-246.906 93.883 19.874 195.262 84.076 208.109 116.06 26.064 64.578-49.437 312.4-138.515 354.593-75.057 49.549-112.221 122.268-304.114 74.925Z"></path></clipPath><clipPath id="d"><path fill="none" d="M1643.782 978.276c65.75 21.583 209.835 380.158 137.879 455.179s-569.7-5.049-569.7-5.049c-13.6 6.781-61.539-2.983-69.869-19.922-9.72-19.725-68.276 1.516-72.4-18.363-2.366-11.6 42.919-34.848 107.116-33.954 13.677.2 47.141 7.847 47.141 7.847s342-3.065 376.291-31.644c42.4-35.406-79.906-140.269-73.032-270.82 4.236-80.25 80.329-95.165 116.574-83.274Z"></path></clipPath><clipPath id="e"><path fill="none" d="M1461.7 879.637s22.415-10.538 13.552-43.387c-2.013-7.688-24.454 22.225-35.512 8.186-15.072-19.256-31.722-106.367 3.671-134.347 21.955-17.335 69.212-13.348 85.077 8.053s27.277 90.521 10.113 120.362c-27.295 47.612 45 93.225 45 93.225s-99.6 33.125-137.806 77.041c-11.207 12.898 15.905-129.133 15.905-129.133Z"></path></clipPath></defs><path fill="#f0eff4" fill-rule="evenodd" d="M1148.617 1417.437c-182.754-9.878-340.92 23.765-306.486 74.992 54.22 80.571 214.343 49.3 308.686 102.669 105.9 59.885 290.815-18.549 278.841-78.931-15.677-78.907-192.319-93.93-281.041-98.73ZM777.594 385.427C670.228 412.076 598.044 487.571 642.535 543.9c70.012 88.575 144.465 15.61 223.609 61.838 88.833 51.864 176.786-13.873 140.391-86.364C958.962 424.66 829.719 372.5 777.594 385.427Z"></path><path fill="#f0eff4" fill-rule="evenodd" d="M1128.545 1401.707c442.332 153.084 687.084-377.965 460.924-656.29-427.136-525.484-549.293 84.129-882.7-91.663-374.169-197.206-449.691 351.382-358.607 533.41 250.352 500.929 550.749 135.089 780.383 214.543Z"></path><path fill="#e0dee8" d="M367.953 1221.405c3.37-5.543 7.454-10.156 10.784-16.224.1-.175.152-.466.251-.641 11.514-9.759 25.277-21.1 35.9-32.66 16.72-18.336 29.355-38.818 39.865-59.528a206.948 206.948 0 0 0 24.121-78.891c.5-11.421 6.35-37.829-6.648-42.749-11.31-1.136-32.246 17.677-40.337 24.98-30.371 28.684-54.626 62.887-66.754 98.575a78.494 78.494 0 0 0 8.628 66.689c2.307 4.481 5.374 10.008 5.5 14.96a22.682 22.682 0 0 1-2.395 8.4 3.719 3.719 0 0 0-.591.642.874.874 0 0 0-.058.7 87.414 87.414 0 0 1-6.87 9.922c-.642.933-1.238 1.984-1.881 2.918-1.151-4.134-2.3-8.268-3.645-12.46-6.432-17.288-15.591-33.345-24.459-49.52-4.475-8.612-9.142-17.281-14.055-25.717 7.308-10.1 15.288-19.79 21.439-30.234 12.6-21.415 23.227-43.523 30.424-66.147 8.757-30.145 21.405-61.58 16.8-91.225-1.9-6-4.755-16.068-13.564-16.046-1.94.238-3.652 1.466-5.217 2.635l-10.13 7.716c-9.049 6.607-17.478 13.911-24.085 22.375-26.177 33.218-39.374 75.958-35.2 112.129 2.284 16.25 8.844 31.324 12.2 47.279l.047.116c-1.233-1.8-2.466-3.606-3.8-5.234-10.737-14.072-23.817-26.8-34.554-40.872-5.561-7.094-11.023-14.363-16.584-21.457l-.047-.117c-1.256-3.551-2.378-6.345-2.185-9.666.614-5.653 5.363-12.831 8.366-19.714 6.805-15.573 9.358-31.6 13.36-47.4 5.848-26.408 10.44-52.988 8.488-78.968a92.868 92.868 0 0 0-2.833-18.463c-1.816-8.327-10.006-4.228-15.55.972-10.691 9.7-20.476 20.385-27.468 32.113-5.959 10.5-8.2 21.811-10.393 32.829-3.09 16.379-5.7 33.107-3.266 48.891 1.612 9.085 5.509 17.523 10.235 25.493 3.674 7.041 9.352 12.736 14.639 18.724 1 .813 1.513 2.5 2.664 3.256a13.826 13.826 0 0 0-.5 4.662l.4 2.272c-4-4.884-7.945-9.652-12.186-14.3-10.305-10.462-21.5-19.348-31.767-29.285-9.271-8.308-19.471-15.974-28.987-24.048a2.7 2.7 0 0 1 .2-.758 24.967 24.967 0 0 1 1.156-3.033c2.985-5.659 7.32-10.913 10.691-16.457 4.556-7.236 9.5-14.357 13.284-21.824a176.944 176.944 0 0 0 9.405-24.727c6.315-18.485 7.455-37.191 6.409-55.424-.391-6.467-1.805-12.522-2.547-18.172a66.024 66.024 0 0 0-1.39-7.687c-.421-1.048-.982-2.445-2.53-2.5-2.032.006-3.125 1.931-4.159 3.157q-3.917 4.817-7.974 9.284c-7.466 7.593-15.989 14.664-22.111 23.07-11.2 14.769-18.168 31.624-18.4 47.938.45 12.526 5.807 23.757 10 35.05 2.325 6.636 4.843 13.33 5.234 19.8.292 3.262.1 6.584.1 9.963-5.35-4.881-11.66-10.458-16.607-16.447a21.823 21.823 0 0 1-2.512-3.723 2.913 2.913 0 0 0 .169-1.69 14.165 14.165 0 0 1 .006-3.787c.345-7.167 1.32-14.452.4-21.383-1.168-6.29-4.574-11.816-7.2-17.52a175.977 175.977 0 0 0-18.786-29.9c-19.132-22.733-40.436-42.431-64.218-61.54-2.208-1.276-7.617-8.837-10.182-5.509-1.782 6.122-1.583 12.53-2.348 18.65-1.969 29.311 10.082 56.373 29.038 77.825 5.912 6.277 11.777 12.438 18.717 17.9 7.133 5.517 15.492 9.865 23.314 14.565 7.39 4.468 15.171 8.643 23.992 11.185a20.819 20.819 0 0 0 3.376.807 91.49 91.49 0 0 0 16.176 19.594c-22.806-9.5-41.47-27.687-69.557-30.064-12.758-1.366-26.183-.167-39.432 2.313a137.584 137.584 0 0 0-29.687 8c-4.58 2.109-9.826 3.4-13.646 6.56-4.446 6.245 6.338 10.3 11.3 12.09C45.124 977.8 55.61 979 65.757 980.2c9.083 1.084 17.922 2.4 27.257 2.844 1.905 12.347 3.61 25.044 11.3 35.746 14.937 21.577 41.721 37.183 73.26 38.444 9.627.325 19.389-1.972 29.045-3.685 5.533-1.005 11.83-1.37 16.562-.566 10.042 1.781 20.329 3.328 30.978 3.243a18.068 18.068 0 0 0 2.518-.065c7.361 9.887 14.476 20.006 22.128 29.775 10.936 13.723 23.092 26.685 32.416 41.461 1.986 3.257 3.972 6.515 5.765 9.715-18.43-14.228-34.308-30.968-55.682-42.392a290.766 290.766 0 0 0-45.759-18.937c-10.894-3.061-22.362-6.7-34.717-5.8-20.644 1.8-40.43 11.229-59.492 17.395-4.737 2.983 1.735 7.278 3.739 9.312 12.67 10.864 29.816 16.822 46.675 22.489 16.76 5.843 32.976 12.444 50.63 16.711 13.4 3.812 28.1 4.533 42.767 4.729 10.644.322 20.983 1.578 31.423 2.659a152.016 152.016 0 0 0 24.19.7c3.914 7.215 7.635 14.371 11.4 21.645 7.448 13.906 14.236 26.59 20.078 41.142a226.861 226.861 0 0 1 7.541 24.276c-11.3-1.544-19.231-9.04-27.7-15.778-12.11-9.466-25.838-17.472-39.764-25.128-14.073-7.6-28.8-13.444-42.592-20.343-19.073-9.915-38.736-19.188-59.883-26.243a83.115 83.115 0 0 0-31.645-4.057c-8.032-.154-7.174 4.1-4.428 8.4 14.715 20.18 25.616 43.109 46.342 59.254a189.768 189.768 0 0 0 27.041 17.935c6.817 3.887 13.827 7.831 21.877 10.141 20.394 5.6 43.322 6.533 65.76 4.554 7.945-.486 15.674-2.777 23.4-5.069a88.062 88.062 0 0 0 10.848-3.814l.731-.293a32.412 32.412 0 0 0 6.6 2.08 28.489 28.489 0 0 0 3.96.573 228.571 228.571 0 0 1 6.1 47.294 49.563 49.563 0 0 0-11.088-9.876 41.436 41.436 0 0 0-17.3-5.084c-14.9-.371-28.747 3.16-43.258 2.5-12.437-.143-22.712-2.506-34.483-5.215-7.478-1.729-15.095-3.807-23.379-3.32-13.856.967-26.048 10.727-34.606 20.246-3.1 3.678-6.35 7.415-9.067 11.209-2.284 4.026 1.554 6.4 5.217 7.5 7.664 2.194 16.234 2 24.763 1.277 10.03-.782 19.961-1.39 29.933-1.473 11.952.2 24.29.522 35.757-5.974 6.73-3.513 12.215-8.013 18.4-10.767 13.383-5.1 27.882-.245 41.236 3.45a39.793 39.793 0 0 0 13.489 1.073 14.713 14.713 0 0 0 4.661-1.06c.257 12.468.853 24.935-.2 37.522-.116 1.4-.21 1.166-.426 2.739l.094.233c.046.117.046.117-.053.292l.047.116a.892.892 0 0 0 1.15.755 15.862 15.862 0 0 0 4.873-2.227c2.371-.006 2.33-7.288 2.587-8.338.7-7.984.859-16.024 1.07-23.949a37.716 37.716 0 0 0 8.967-4.275 34.393 34.393 0 0 0 6.134-5.842c.479.348 1.5-.062 2.33-.53 4.58-2.109 9.727-3.229 15.078-5.107 6.081-2.171 12.168-4.75 18.062-7.387 14.377-6.852 27.235-15.8 39.233-25.618 19.921-15.431 36.979-33.769 48.259-54.247 3.687-7.292 7.764-14.877 7.776-22.451-.123-1.573.052-3.671-1.729-4.307s-3.932.767-5.825 1.121a95.762 95.762 0 0 1-10.3 2.648c-12.81 2.3-25.721 4.784-37.714 10.815-24.71 11.948-52.009 42.372-59.591 64.88-3.821 9.915-4.744 20.288-9.809 29.215a72.755 72.755 0 0 1-10.743 13.369c-2.208 2.1-5.427 3.8-9.563 5.326l-.292.117c.047-3.262.047-6.642.094-9.9-.92-20.046-3.397-39.733-8.257-58.598ZM233.4 1052.256a2.187 2.187 0 0 0-.725-.115c-.274-1.106-2.149-1.976-2.617-3.139-3.791-5.642-7.483-11.46-13.032-15.99-11.427-9.876-24.869-17.591-38.112-25.657-12.711-8.008-26.848-14.5-40.4-21.631l-6.484-3.479c3.826-.184 7.506-.31 11.333-.5 11.379-.378 22.8-.232 34.349-2.3.339 0 .631-.118.97-.119s.578.173.917.173l.292-.118c5.684 5.288 11.759 10.284 17.4 15.455 8.272 7.087 14.809 13.655 22.251 21.21 7.828 7.671 15.142 14.062 22.187 22.317 4.189 4.942 8.132 10.118 11.882 15.235a150.429 150.429 0 0 1-20.211-1.342Z"></path><path fill="#dad8e4" d="M1584.805 787.525c1.677 2.186 3.229 4.493 4.907 6.679a167.928 167.928 0 0 0 11.859 14.436 124.192 124.192 0 0 0 19.375 15.849c8.964 5.838 17.032 11.017 21.2 20.164l.252-.24c2.391-2.029 15.029-8.279 14.347-1.317-.408 8.72-.822 16.94 1.685 24.9a35.462 35.462 0 0 0 3.653 8.128 25.179 25.179 0 0 1 .851-3.337c.368-1.109.863-2.338 2-2.668 3.291-1.121 6.047 6.349 7.47 8.526 7.259 12.261 9.2 26.563 9.107 40.287-.25 11.347-2.378 25.242-13.37 30.932-3.537 1.86-9.506 2.253-12.161 3.523-7.083 2.971.861 8.519 7.139 12.88a73.468 73.468 0 0 0 8.956 5.089 100.429 100.429 0 0 1 25.87-16.1 6.145 6.145 0 0 1 1.646-.56 14.954 14.954 0 0 0 2.439-8.891c.074-4.615-2.658-10.087-3.61-15.49-1.621-8.3 4.382-16.8 13.1-9.976 6.55 5.869 5.168 18.295 2.834 25.318a26.339 26.339 0 0 1-2.734 5.386c.506-.23 1.14-.331 1.646-.561l6.463-1.622c-.134-.629-.266-1.008-.4-1.637a76.547 76.547 0 0 1-2.61-16.949c-.233-9.119 3.733-17.951 9.63-24.587 6.66-6.606 15.512-10.507 23.078-15.706 11.1-7.058 20.261-17.561 33.3-21.675 5.575-1.531 11.322.813 12.157 7.085.7 5.892-.374 11.716-1.962 17.271-2.691 9.131-7.168 17.693-11.776 25.877-.123.369-.374.609-.5.979a1.018 1.018 0 0 1 .631-.35c6.929-5.348 13.318-13.463 19.849-20.2 9.169-9.5 20.395-16.932 32.4-23.082 5.057-2.3 16.672-9.09 22.05-5.637a5.142 5.142 0 0 1 1.084 5.782c-2.977 6.375-5.96 12.25-7.668 18.423a100.2 100.2 0 0 0-2.291 10.769c3.037-1.13 6.075-2.261 9.238-3.511 8.478-3.292 16.824-6.962 26.093-7.727 9.276-.266 19.588 1.256 27.281 7.045 7.441 6.028 12.354 13.207 20.8 17.776 8.187 4.56 19.534 7.62 29.353 10.37 3.315.877 6.884 1.764 10.2 2.641 2.169.708 4.464 1.3 6.007 2.853 2.578 3.1-.714 4.216-3.249 4.866-3.417 1.241-6.834 2.482-10.123 3.852-7.589 3.2-16.175 8.11-24.136 12.17-6.82 3.73-13.763 7.83-21.493 9.9a81.15 81.15 0 0 1-40.278 1.063c-2.04-.578-4.206-1.036-6.121-1.734.392.889 1.038 1.787 1.429 2.676 3.372 5.871 7.642 12.4 6.831 19.233-1.442 7.183-9.56 8.616-16.181 7.611-3.82-.647-7.275-2.652-10.6-4.278-6.521-3.372-12.431-8.842-17.058-13.264-4.369-4.163-10.013-8.624-14.739-10.679-2.044-.828-3.575-1.386-4.2-.786a5.52 5.52 0 0 0 .906 1.407c4.521 6.29 9.425 12.72 11.546 20.289a9.605 9.605 0 0 1 .3 4.255c-2.193 8.152-21.629-12.941-24.709-15.556a98.421 98.421 0 0 0-13.206-9.871c-7.552-4.66-16.516-10.5-24.131-9.544-2.658 1.021-.986 2.708 2.366 6.831 6.447 7.986 16.226 18.348 12.79 28.948-2.471 6.144-10.461 7.707-16.461 5.354a45.409 45.409 0 0 1-10.239-6.137l.78 1.528c.532 2.017.169 3.625-.962 4.705 9.461 4.858 21.965 9.086 30.2 17.391 3.6 3.384 7.61 9.654 2.695 13.333-1.514.94-3.42.991-5.326 1.042a32 32 0 0 1-3.563-.388c2.078 3.825 3.775 7.759 6.23 11.224 3.621 5.381 9.682 12.978 12.812 19.838 3.518 7.5 4.756 15.659 5.1 23.66a56.432 56.432 0 0 1-3.781 24.813c-2.469 6.394-4.7 11.3-5.9 17.743-.354 2.357-.962 4.7-1.188 7.192s-.7 5.464-3.911 2.469c-5.924-6.718-8.934-14.2-14.726-20.537-18.041-21.414-36.737-11.4-46.543-35.12a45.181 45.181 0 0 1-3.5-17.108 93.605 93.605 0 0 0-.958-17.009c-4.389 5.2-9.546 9.864-13.935 15.06l-.5.48a48.258 48.258 0 0 1 4.224 2.535c2.817 1.856 5.767 4.091 7.327 7.147 1.949 3.694.726 7.89-1.911 10.658.515.52.9 1.159 1.546 1.807 1.418 1.678 4.25 4.782 5.021 5.561 5.013 4.811 11.4 7.554 16.786 11.756s7.633 11.652 2.222 16.309a13.709 13.709 0 0 1-8.475 3.541 15.69 15.69 0 0 1-3.432-.008 32.126 32.126 0 0 0-1.737 3.677c-2.965 7.373-3.63 15.834-3.149 24.463 1.669 12.545 10.212 25.854 18.982 36.925a123.3 123.3 0 0 1 8.519 11.312c1.423 2.177 3.615 4.882 2.118 7.32-.751.969-2.274 1.16-3.543 1.361-2.792.391-5.586.532-8.378.924a85.254 85.254 0 0 1-34.484-3.455c-6.506-2.124-13.27-4.507-18.408-9.2-8.856-7.456-8.515-21.919-10.033-32.336a38.465 38.465 0 0 0-2.793-10.716 36.844 36.844 0 0 0-6.461-9.235 27.072 27.072 0 0 1-1.428 8.431c-3.468 7.853-11.433.556-14.536-4.056-8.168-13.919-7.721-30.25-11.96-45.14-2.129-8.319-3.513-18.107-12.406-17.7-5.083.053-10.272 1.974-14.569 4.054a39.134 39.134 0 0 0-5.806 3.52c-.126.12-.38.11-.635.1-4.167 13.317-7.315 26.923-10.846 40.389-3.524 13.966-7.049 27.932-10.191 42.037a79.9 79.9 0 0 1 12.747 3.238c3.575 1.387 7.033 3.642 8.979 7.087a20.247 20.247 0 0 1 2.624 7.09c1.157 1.168 2.823 2.355 4.363 3.663a38.536 38.536 0 0 1 6.176 6.478c5.161 6.689 9.211 16.206 6 24.068l.129.13a40.4 40.4 0 0 1 3.153 19.965c-.436 6.223-2.148 12.147-3.221 18.22-1.308 7.812.184 15.982 1.553 24.521-.316 5.6-5.966.643-8.023-1.434-4.113-3.9-7.719-8.036-11.706-12.058-6.049-6.6-12.979-12.358-19.283-18.966a90.627 90.627 0 0 1-12.789-17.842c-1.172-2.416-2.215-4.7-3.132-7.109-2.168 10.4-4.59 20.788-7.141 31.047a152.569 152.569 0 0 1-5.379 18.512 131.143 131.143 0 0 1-9.439 19.1c-4.866 7.924-9.726 16.347-16.514 22.824-2.658 1.02-4.481-2.794-2.724-4.723a122.99 122.99 0 0 0 8.766-11.392c5.751-8.264 13.342-22.322 15.8-29.465 6.127-19.731 9.957-40.3 14.553-60.588 7.811-39.009 17.152-77.709 27.512-116.12a13.773 13.773 0 0 1 .734-2.468c-8.444-4.819-21.489-11.813-27.182-20.519a8.227 8.227 0 0 1-1.251 1.7 30.321 30.321 0 0 1-24.113 14.169c-6.98.853-14.355.568-20.876-2.805-2.812-1.356-5.75-2.593-8.187-4.559-1.927-1.7-1.572-4.054.576-5.1 2.655-1.27 4.429-1.7 6.7-3.36a6.563 6.563 0 0 0 2.254-2.908c-5.738-1.594-11.481-3.688-17.219-5.283-4.852-1.935-15.179-4.705-16.64-10.128-.546-3.266 2.477-5.645 5.391-6.406a3.859 3.859 0 0 1 1.015-.21 6.856 6.856 0 0 0-1.792-1.068A62.191 62.191 0 0 0 1491.7 1046c-6.767-2.632-13.537-5.515-19.183-10.226-3.338-2.875-7.316-6.148-8.257-10.553-.54-2.766 1.6-4.306 3.883-4.966a108.136 108.136 0 0 0-1.912-11.555 69.926 69.926 0 0 0-15.608-30.8c-7.358-9.894-19.061-21.7-20.348-34.107-.3-4 1.425-8.681 6.4-7.366 13.651 4.4 26.933 9.9 40.454 14.169 7.91 2.552 15.565 5.095 23.349 7.767 5.744 2.094 11.865 3.828 17.491 6.791 9.09 5.718 15.426 15.073 18.845 24.939 2.994-4.876 6.494-9.982 12.729-9.366 5.1 1.195 7.7 6.787 9.659 10.981a38.248 38.248 0 0 1 3.193 12.353c.469 7.631.035 14.1 2.15 21.174a19.97 19.97 0 0 0 1.438 3.425 52.78 52.78 0 0 0 4.6-8.932c.865-2.088 1.728-4.426 2.594-6.514.614-1.848 1.859-4.046 4.025-3.588 6.376 1.744 8.794 13.069 9.749 18.722 2.73 16.329-1.529 32.763-10.014 46.412 4.147 6.9 13.617 12.507 21.552 17.306l4.99 2.814c5.87-19.99 14.035-39.392 22.714-58.276.866-2.088 1.985-4.166 2.977-6.374-.766-.279-1.535-.808-2.3-1.087-3.191-1.247-6.252-2.114-9.441-3.111a129.713 129.713 0 0 1-13.9-4.157c-9.964-4.378-18.56-11.325-26.273-18.861-2.957-2.985-6.041-5.85-9.124-8.715-1.415-1.427-3.6-3.383-4-5.271a3.672 3.672 0 0 1-.526-1.518c.108-1.618 1.88-2.3 3.277-2.369a26.119 26.119 0 0 1 2.792-.391c2.92-.262 5.966-.643 9.015-.775 16.013-.13 35.773 5 43.2 20.889 2.343 4.833 3.564 11.5 5.633 14.57 1.549 2.056 2.709 3.474 4.5 4.292a206.029 206.029 0 0 1 23.093-36.421 40.6 40.6 0 0 0-6.395-3.492c-9.7-3.62-20.128-4.023-29.829-7.643a96.2 96.2 0 0 1-21.492-11.07c-6.661-4.5-13.2-9.371-18.352-15.311-4.641-5.671-6.116-12.342 1.991-14.774 3.423-.741 6.866.266 10.307 1.023 4.714 1.055 9.175 2.1 14.513 2.058.254.01.634-.1.888-.09-.894-.409-1.791-1.068-2.686-1.477a227.542 227.542 0 0 1-22.412-14.719c-3.078-2.365-6.155-4.73-8.982-7.336-2.7-2.475-5.272-5.32-6.075-8.846-.672-3.146.7-5.713 4-6.085 3.429-.242 6.875 1.015 10.061 1.762 4.715 1.056 8.792 1.962 13.121 2.629-3.846-2.894-7.944-5.549-11.664-8.563a106.445 106.445 0 0 1-17.63-18.777c-1.42-1.927-13.311-19.11-6.045-17.206 6.907 3.761 12.294 7.963 19.437 10.236 1.021.289 1.915.7 2.935.987-6.665-15.858-2.46-25.928-.367-42.82a104.744 104.744 0 0 0 .656-20.316c-.332-6.752-1.939-13.8-.745-20.5a3.046 3.046 0 0 1 4.454.55Zm112.836 173.837a104.31 104.31 0 0 0-16.789 9.959 51.687 51.687 0 0 1 13.107 1.38c3.44.757 5.863 1.475 9.549 1.493 6.867.265 13.559-3.595 21.059-3.429 5.975.106 11.225 3.429 15.843 7.1l.257.259-7.716-7.786c-3.858-3.893-7.207-7.766-11.182-10.79-1.8-1.568-3.843-2.645-5.767-4.092a128.622 128.622 0 0 0-18.361 5.906Zm-69.8 86.032c-3.966 8.832-7.554 17.3-10.762 25.666a13.859 13.859 0 0 0 3.677-.731 32.086 32.086 0 0 0 10.875-4.821c6.561-4.239 9.883-13.72 16.561-18.828 3.785-2.35 8.486-2.542 13.061-2.615a79.869 79.869 0 0 1 14.381 1.679c5.1 1.2 9.95 3.13 15.051 4.576a16.391 16.391 0 0 0 2.166.458 145.847 145.847 0 0 0 1.736-14.784 108.52 108.52 0 0 0-1.277-22.513 70.516 70.516 0 0 0-2.541-10.955 58.467 58.467 0 0 1-6.482 10.981 80.352 80.352 0 0 1-6.143 7.375c.391.888.911 1.907 1.3 2.8a25.565 25.565 0 0 0 5.035 6.809c5.776 4.841 4.41 7.658-1.919 9.909a28.945 28.945 0 0 1-15.356 2.027c-5.855-.725-11.718-2.2-16.839-5.393-2.815-1.607-5.132-4.192-7.821-5.918-2.052-1.577-4.715-1.056-7.881-.056a131.522 131.522 0 0 0-6.824 14.334Z"></path><path fill="#7c76a8" fill-rule="evenodd" d="M995.2 521.9c0-13.069-40.891-26.186-51.9-33.009a37.34 37.34 0 0 0-36.432-1.537L366.465 757.559a37.283 37.283 0 0 0-20.683 33.362v586.611a37.5 37.5 0 0 0 17.741 31.969c11.006 6.823 46.68 28.342 58.349 22.507 129.979-64.99 433.3-248.579 518.494-291.178a37.338 37.338 0 0 0 20.682-33.507c0-93.264 34.152-443.152 34.152-585.423Z"></path><path fill="#a9a5c6" fill-rule="evenodd" d="M1004.25 542.313a37.33 37.33 0 0 0-54.173-33.358L409.668 779.161a37.282 37.282 0 0 0-20.683 33.361v586.611a37.328 37.328 0 0 0 54.078 33.552l540.505-270.253a37.338 37.338 0 0 0 20.682-33.508Z"></path><path fill="#fff" fill-rule="evenodd" d="M1004.25 577.847a37.346 37.346 0 0 0-54.173-33.474L409.668 814.579a37.246 37.246 0 0 0-20.683 33.407v429.142a37.346 37.346 0 0 0 54.078 33.52l540.505-270.254a37.372 37.372 0 0 0 20.682-33.406Z"></path><g fill="#d6d5e4" clip-path="url(#a)"><path fill-rule="evenodd" d="M402.554 1126.458C437 1080.6 509.746 928.542 575.144 898.785s160.593 58.645 219.992 49.125c57.077-9.133 103.127-96.723 136.793-106.223 26.508-7.43 57.854 22.986 66.367 49.164 15.673 49.165 94.421 196.968 28.054 245.862-104.867 77.2-548.336 211.131-657.85 217.341-59.979 3.406-5.222-142.134.388-180.076 2.903-19.194 22.057-31.983 33.666-47.52Z"></path><ellipse cx="869.634" cy="733.763" rx="102.932" ry="62.747" transform="rotate(-52.014 869.636 733.764)"></ellipse></g><path fill="#fffeff" fill-rule="evenodd" d="M1004.25 969.671a6.545 6.545 0 0 0-3.035-5.55 6.443 6.443 0 0 0-6.357-.261L392.5 1265.043a6.377 6.377 0 0 0-3.51 5.765v15.1a6.531 6.531 0 0 0 3.036 5.543 6.424 6.424 0 0 0 6.356.268l602.358-301.182a6.384 6.384 0 0 0 3.51-5.765Z"></path><path fill="#77536f" fill-rule="evenodd" d="M750.978 1096.389a6.548 6.548 0 0 0-3.07-5.533 6.46 6.46 0 0 0-6.308-.285L392.549 1265.1a6.417 6.417 0 0 0-3.573 5.8v15.1a6.377 6.377 0 0 0 3.07 5.527 6.442 6.442 0 0 0 6.308.291l349.051-174.525a6.5 6.5 0 0 0 3.573-5.8Z"></path><path fill="#77536f" fill-rule="evenodd" d="M473.671 1210.631a4.163 4.163 0 0 0-6.066-3.69l-8.31 4.155a4.228 4.228 0 0 0-2.327 3.768v64.462a4.111 4.111 0 0 0 1.994 3.542 4.159 4.159 0 0 0 4.072.232l8.31-4.155a4.228 4.228 0 0 0 2.327-3.768ZM505.819 1194.557a4.164 4.164 0 0 0-6.066-3.69l-8.31 4.155a4.23 4.23 0 0 0-2.327 3.769v64.462a4.108 4.108 0 0 0 1.994 3.541 4.156 4.156 0 0 0 4.072.233l8.31-4.155a4.23 4.23 0 0 0 2.327-3.769Z"></path><path fill="#ffc197" fill-rule="evenodd" d="M1476.493 963.577c-21.719 65.8-380.539 248.855-434.214 143.142-30.3-59.715 2.557-159.093 45.663-247.312 48.075-98.39 108.887-182.929 108.887-182.929-6.745-13.613-3.382-50.724 4.194-67.418 11.479-25.357 29.151-10.316 43.8-19.149 18.837-11.329-30.942-77.365 7.287-77.537 22.627-.162 44.314 111.754 32.938 148.11-4.055 13.032-17.32 17.771-17.32 17.771s-99.4 217.134-70.878 251.389c35.312 42.467 70.571-70.991 201.107-63.859 80.236 4.396 90.492 61.663 78.536 97.792Z"></path><g fill-rule="evenodd" clip-path="url(#b)"><path fill="#fe9400" d="M1231.4 882.266c17.012 6.892 27.365 31.471 34.149 46.763 7.179 16.159 11.188 33.675 10.044 51.477-1.717 26.8-13.766 51.649-14.112 78.542-.248 20.008 6.8 40.535 18.1 56.987a77.919 77.919 0 0 0 19.527 19.736c45.217 31.528 110.87-3.021 149.747-29.227 43.749-29.492 82.864-73.471 95.123-126.065 19.029-81.546-40.124-159.331-117.471-180.288a197 197 0 0 0-93.686-1.813c-36.762 8.1-72.07 25.245-98.2 52.635Z"></path><path fill-opacity=".1" d="M1151.106 653.265c10.127 4.682 46.641 11.725 44.5 22.744-4.461 23.543-78.323 82.253-110.19 313.384-7.619 55.42 54.351 104.514 96.347 97.471 51.1-8.576 98.111-58.4 140.479-86.424 15.051-9.97 28.057-22.1 41.994-33.439 5.3-4.246 12.636-9.337 18.118-2.629 6.968 8.557 8.269 21.183 10.033 31.617q5.575 32.667 9.384 65.65c5.2 44.931 7.062 95.688-22.669 133.409-32.8 41.716-90.309 55.132-139.55 65.213-91.238 18.684-200.406 28.737-263.677-53.878-11.985-15.544-21.183-33.085-28.338-51.286-20.067-51.119-24.713-108.574-20.532-163 4.831-63.364 21.74-125.855 54.91-180.365 38.649-63.373 92.723-109.754 155.716-147.094Z"></path></g><path fill="#fe9400" fill-rule="evenodd" d="M1212.166 1422.346c57.451-189.577 114.77-83.59 96.662-298.672-5.75-67.286 28.357-270.082 137.858-246.906 93.883 19.874 195.262 84.076 208.109 116.06 26.064 64.578-49.437 312.4-138.515 354.593-75.057 49.549-112.221 122.268-304.114 74.925Z"></path><g clip-path="url(#c)"><path fill-opacity=".1" fill-rule="evenodd" d="M1545.062 1061.142c-10.8 6.984-19.311 17.42-26.934 27.6-19.868 26.168-31.085 55.462-38.2 87.313-7.06 31.444-10.593 65.409-27.191 93.716-12.376 20.9-31.251 35-50.048 49.686-47.23 36.959-70.468 46.242-123.585 66.962-30.177 11.712-105.081 78.007-110.256 112.664-3.671 24.147 39.849 15.462 55.717 13.529 43.055-5.281 85.069-19.544 127.928-26.977 61.195-10.684 127.191-15.058 181.96-47.221 72.752-42.774 112.995-133.215 121.18-214.627 3.913-38.747 1.463-81.717-22.853-113.758Z"></path></g><path fill="#ffc197" fill-rule="evenodd" d="M1643.782 978.276c65.75 21.583 209.835 380.158 137.879 455.179s-569.7-5.049-569.7-5.049c-13.6 6.781-61.539-2.983-69.869-19.922-9.72-19.725-68.276 1.516-72.4-18.363-2.366-11.6 42.919-34.848 107.116-33.954 13.677.2 47.141 7.847 47.141 7.847s342-3.065 376.291-31.644c42.4-35.406-79.906-140.269-73.032-270.82 4.236-80.25 80.329-95.165 116.574-83.274Z"></path><g clip-path="url(#d)"><path fill="#fe9400" fill-rule="evenodd" d="M1544.018 1228.073c6.858-17.025 31.417-27.427 46.695-34.242 16.145-7.211 33.653-11.254 51.458-10.145 26.8 1.664 51.675 13.663 78.569 13.955 20.008.209 40.521-6.878 56.95-18.213a77.893 77.893 0 0 0 19.7-19.567c31.439-45.278-3.241-110.863-29.524-149.688-29.579-43.69-73.635-82.718-126.253-94.873-81.583-18.868-159.251 40.439-180.055 117.829a197.019 197.019 0 0 0-1.626 93.689c8.173 36.745 25.387 72.02 52.829 98.1Z"></path></g><path fill="#ffc197" fill-rule="evenodd" d="M1461.7 879.637s22.415-10.538 13.552-43.387c-2.013-7.688-24.454 22.225-35.512 8.186-15.072-19.256-31.722-106.367 3.671-134.347 21.955-17.335 69.212-13.348 85.077 8.053s27.277 90.521 10.113 120.362c-27.295 47.612 45 93.225 45 93.225s-99.6 33.125-137.806 77.041c-11.207 12.898 15.905-129.133 15.905-129.133Z"></path><g clip-path="url(#e)"><path fill-opacity=".1" fill-rule="evenodd" d="M1468.629 839.389c3.25-.926 6.318-3.605 9.026-5.517a156.057 156.057 0 0 0 17.577-14.044c2.073-2.053 4.157-4.16 6.406-6.146.5-.518 1.879-2.039 2.786-1.838s-.3 3.074-.477 3.445c-1.468 4.042-6.53 12.285-8.688 16.012-8.636 15.349-22.351 29.144-32.377 31.443Z"></path></g><path fill-rule="evenodd" d="M1461.88 757.039c-7.764-.2-15.15-4.48-21.3-8.9-23.644-16.966-23.145-47.9-3.764-68.047 11.691-12.1 36.222-20.741 48.353-4.687 3.54-5.4 11.213-7.892 17.055-9.466 4.614-1.222 56.262-30.65 87.175 26.658 18.543 34.248 5.7 97.544-15.539 105.714-1.688 5.075-6.321 8.759-10.459 11.8-11.4 8.426-30.01 14.81-43.31 6.957a21.147 21.147 0 0 1-4.359-3.472c-9.651-10.026-.238-22.149 2.5-33 1.461-5.718 2.563-12.851-2.548-17.136-4.148-3.355-8.111-1.234-11.2 2.243-4.681 5.3-7.092 13.482-14.792 15.192-11.087 2.446-22.3-7.909-26.07-15.312-.781-1.574-1.742-8.544-1.742-8.544Z"></path><g fill-rule="evenodd"><path fill="#a37b9a" d="M1394.134 513.657a16.2 16.2 0 0 0-8.97-14.458l-188.173-94.087a16.154 16.154 0 0 0-23.365 14.439v140.915a16.131 16.131 0 0 0 8.919 14.441l188.172 94.086a16.161 16.161 0 0 0 23.417-14.421Z"></path><path fill="#77536f" d="M1375.738 522.855a16.2 16.2 0 0 0-8.97-14.458L1178.6 414.31a16.154 16.154 0 0 0-23.365 14.439v140.915a16.131 16.131 0 0 0 8.919 14.441l188.172 94.086a16.161 16.161 0 0 0 23.417-14.421Z"></path><path fill="#e9dfe6" d="M1220.958 520.787a5.857 5.857 0 0 0-5.4 3.532 5.95 5.95 0 0 0 1.247 6.358c17.347 17.316 53.184 53.1 70.531 70.5a5.807 5.807 0 0 0 6.337 1.257 6.016 6.016 0 0 0 3.531-5.381v-70.47a5.814 5.814 0 0 0-5.816-5.817c-14.025-.029-50.278.043-70.43.021Z"></path></g><path fill="#ffc197" fill-rule="evenodd" d="M1258.536 646.937c5.809-6.588 40.68-22.463 49.833-23.738 14.6-2.143 28.336 7.418 23.278 21.3-2.015 5.34-46.18 17.61-58.329 18.046-4.974.155-17.1-12.997-14.782-15.608Z"></path><path fill-rule="evenodd" d="M1422.879 815.857a13.486 13.486 0 0 1 4.46-5.8c4.645-3.921 10.778-6.178 16.073-1.821 5.017 4.2 6.318 13.769 15.33 9.579a11.982 11.982 0 0 0 3.066-2.053c8.176-7.9 12.636-21.155 14.494-32.128.743-4.581.65-9.319 1.58-13.863.278-1.337 1.022-3.976 2.88-3.27 3.065 1.143 5.667 3.865 8.734 5.184.929.391 2.879.6 3.344 1.636 1.208 2.936-2.415 10.127-2.973 13.156-1.486 8.092-2.6 16.287-3.809 24.426-.558 3.577-.372 7.47-1.487 10.916-1.022 3.011-3.344 5.52-4.924 8.195-2.23 3.54-3.81 7.442-6.782 10.462-6.969 7.126-20.162 12.236-30.1 12.459-17.839.4-26.758-23.014-21.649-37.665Z"></path></svg>